<?xml version="1.0" encoding="UTF-8" standalone="no"?>
<svg
   xmlns:dc="http://purl.org/dc/elements/1.1/"
   xmlns:cc="http://creativecommons.org/ns#"
   xmlns:rdf="http://www.w3.org/1999/02/22-rdf-syntax-ns#"
   xmlns:svg="http://www.w3.org/2000/svg"
   xmlns="http://www.w3.org/2000/svg"
   xmlns:sodipodi="http://sodipodi.sourceforge.net/DTD/sodipodi-0.dtd"
   xmlns:inkscape="http://www.inkscape.org/namespaces/inkscape"
   inkscape:version="1.0 (4035a4fb49, 2020-05-01)"
   sodipodi:docname="gitlab.svg"
   id="svg86"
   version="1.1"
   viewBox="0 0 24 24"
   role="img">
  <metadata
     id="metadata92">
    <rdf:RDF>
      <cc:Work
         rdf:about="">
        <dc:format>image/svg+xml</dc:format>
        <dc:type
           rdf:resource="http://purl.org/dc/dcmitype/StillImage" />
      </cc:Work>
    </rdf:RDF>
  </metadata>
  <defs
     id="defs90" />
  <sodipodi:namedview
     inkscape:current-layer="svg86"
     inkscape:window-maximized="0"
     inkscape:window-y="117"
     inkscape:window-x="563"
     inkscape:cy="11.374661"
     inkscape:cx="9.0424646"
     inkscape:zoom="8.9166667"
     showgrid="false"
     id="namedview88"
     inkscape:window-height="828"
     inkscape:window-width="1241"
     inkscape:pageshadow="2"
     inkscape:pageopacity="0"
     guidetolerance="10"
     gridtolerance="10"
     objecttolerance="10"
     borderopacity="1"
     bordercolor="#666666"
     pagecolor="#ffffff" />
  <title
     id="title82">GitLab icon</title>
  <path
     style="stroke-width:0.999999"
     id="path84"
     d="m 4.8435156,0.90511581 a 1.007,1.007 0 0 0 -0.955,0.69200009 l -2.53,7.7830001 c 0,0.007 -0.005,0.012 -0.007,0.02 l -1.28200002,3.936 a 1.437,1.437 0 0 0 0.522,1.607 l 11.07200042,8.045 a 0.566,0.566 0 0 0 0.67,-0.004 l 11.074,-8.04 a 1.436,1.436 0 0 0 0.522,-1.61 l -1.26,-3.867 a 0.547,0.547 0 0 0 -0.031,-0.104 l -2.526,-7.775 a 1.004,1.004 0 0 0 -0.957,-0.68400009 0.987,0.98700001 0 0 0 -0.949,0.69000009 l -2.406,7.408 H 8.2025156 l -2.4100001,-7.408 a 0.987,0.98700001 0 0 0 -0.943,-0.69000009 h -0.006 z m -0.006,1.42000009 2.174,6.6780002 H 2.6735155 Z m 14.3280004,0 2.168,6.6780002 h -4.342 z M 8.5715156,10.135116 h 6.8620004 l -2.15,6.618 -1.284,3.941 -3.4280004,-10.558 z m -5.5150001,0.005 h 4.322 l 3.0860005,9.5 z m 13.5680005,0 h 4.326 l -6.703,8.588 -0.709,0.914 2.959,-9.108 z m -14.5250005,0.623 6.978,8.947 -7.8179999,-5.682 a 0.30500001,0.30499999 0 0 1 -0.112,-0.341 z m 19.8000005,0 0.952,2.922 a 0.30500001,0.30499999 0 0 1 -0.11,0.341 v 0.002 l -7.82,5.68 0.025,-0.035 z" />
</svg>
