<?xml version="1.0" encoding="UTF-8" standalone="no"?>
<svg
   xmlns:dc="http://purl.org/dc/elements/1.1/"
   xmlns:cc="http://creativecommons.org/ns#"
   xmlns:rdf="http://www.w3.org/1999/02/22-rdf-syntax-ns#"
   xmlns:svg="http://www.w3.org/2000/svg"
   xmlns="http://www.w3.org/2000/svg"
   xmlns:sodipodi="http://sodipodi.sourceforge.net/DTD/sodipodi-0.dtd"
   xmlns:inkscape="http://www.inkscape.org/namespaces/inkscape"
   inkscape:version="1.0 (4035a4fb49, 2020-05-01)"
   sodipodi:docname="twitter.svg"
   id="svg176"
   version="1.1"
   viewBox="0 0 24 24"
   role="img">
  <metadata
     id="metadata182">
    <rdf:RDF>
      <cc:Work
         rdf:about="">
        <dc:format>image/svg+xml</dc:format>
        <dc:type
           rdf:resource="http://purl.org/dc/dcmitype/StillImage" />
      </cc:Work>
    </rdf:RDF>
  </metadata>
  <defs
     id="defs180" />
  <sodipodi:namedview
     inkscape:current-layer="svg176"
     inkscape:window-maximized="0"
     inkscape:window-y="27"
     inkscape:window-x="0"
     inkscape:cy="9.5305275"
     inkscape:cx="-1.9262573"
     inkscape:zoom="17.833333"
     showgrid="false"
     id="namedview178"
     inkscape:window-height="908"
     inkscape:window-width="1777"
     inkscape:pageshadow="2"
     inkscape:pageopacity="0"
     guidetolerance="10"
     gridtolerance="10"
     objecttolerance="10"
     borderopacity="1"
     bordercolor="#666666"
     pagecolor="#ffffff" />
  <title
     id="title172">Twitter icon</title>
  <path
     id="path174"
     d="m 23.9535,4.5695 c -0.885,0.389 -1.83,0.654 -2.825,0.775 1.014,-0.611 1.794,-1.574 2.163,-2.723 -0.951,0.555 -2.005,0.959 -3.127,1.184 -0.896,-0.959 -2.173,-1.559 -3.591,-1.559 -2.717,0 -4.92,2.203 -4.92,4.917 0,0.39 0.045,0.765 0.127,1.124 -4.09,-0.193 -7.715,-2.157 -10.141,-5.126 -0.427,0.722 -0.666,1.561 -0.666,2.475 0,1.71 0.87,3.213 2.188,4.096 -0.807,-0.026 -1.566,-0.248 -2.228,-0.616 v 0.061 c 0,2.385 1.693,4.374 3.946,4.827 -0.413,0.111 -0.849,0.171 -1.296,0.171 -0.314,0 -0.615,-0.03 -0.916,-0.086 0.631,1.953 2.445,3.377 4.604,3.417 -1.68,1.319 -3.809,2.105 -6.102,2.105 -0.39,0 -0.779,-0.023 -1.17,-0.067 2.189,1.394 4.768,2.209 7.557,2.209 9.054,0 13.999,-7.496 13.999,-13.986 0,-0.209 0,-0.42 -0.015,-0.63 0.961,-0.689 1.8,-1.56 2.46,-2.548 z" />
</svg>
